<?xml version="1.0" encoding="utf-8"?>
<!-- Generator: Adobe Illustrator 25.2.0, SVG Export Plug-In . SVG Version: 6.00 Build 0)  -->
<svg version="1.1" id="Layer_1" xmlns="http://www.w3.org/2000/svg" xmlns:xlink="http://www.w3.org/1999/xlink" x="0px" y="0px"
	 viewBox="0 0 100 100" style="enable-background:new 0 0 100 100;" xml:space="preserve">
<style type="text/css">
	.st0{fill:#F8FAFC;}
	.st1{fill:#E2E8F0;}
	.st2{fill:#DC2626;}
	.st3{fill:#7F1D1D;}
</style>
<path class="st0" d="M96.9,15.1v69.7c0,6.6-5.4,12-12,12H15.2c-6.6,0-12-5.4-12-12v-1L83.9,3.1h1C91.5,3.1,96.9,8.5,96.9,15.1z"/>
<path class="st1" d="M83.9,3.1L3.2,83.8V15.1c0-6.6,5.4-12,12-12H83.9z"/>
<path class="st2" d="M86.7,78.6l-7.9,7.9c-2.2,2.2-5.7,2.2-7.9,0L53.5,68.9c-3.5-3.5-4.2-8.6-2.1-12.7L35.4,40.2h-9.3l-14.4-19
	l9.5-9.4l19,14.4v9.1l16.1,15.9c4.2-2.1,9.3-1.4,12.7,2.1l17.6,17.3C88.9,72.9,88.9,76.4,86.7,78.6z"/>
<path class="st3" d="M61.3,45.3c4.3,0,8.2,1.7,11.2,4.6l2.9,2.9c5.9-2.6,10.7-8,12.2-14.4c0.8-3.6,0.8-7.1,0-10.2
	c-0.4-1.7-2.5-2.2-3.6-1L73.8,37.4H62.4V26.2L72.7,16c1.2-1.2,0.7-3.2-1-3.6c-3.2-0.8-6.6-0.8-10.2,0c-8.3,1.9-14.7,9-16.1,17.4
	c-0.3,1.2-0.3,2.5-0.3,3.6l12.3,12.5C58.8,45.5,60.1,45.3,61.3,45.3z M45.8,57.6L37,48.8L14.7,71.1c-3.9,3.9-3.9,10.4,0,14.3
	c1.9,1.9,4.6,2.9,7.2,2.9s5.1-1,7.2-2.9l17.7-17.7C45.4,64.4,45,61,45.8,57.6z M21.3,82.3c-1.9,0-3.6-1.7-3.6-3.6
	c0-1.9,1.7-3.6,3.6-3.6s3.6,1.7,3.6,3.6S23.3,82.3,21.3,82.3z"/>
</svg>
